<svg width="216" height="48" viewBox="0 0 216 48" fill="none" xmlns="http://www.w3.org/2000/svg">
<path d="M216 48L216 43.2C216 36.4794 216 33.1191 214.692 30.5521C213.542 28.2942 211.706 26.4584 209.448 25.3079C206.881 24 203.521 24 196.8 24L19.2 24C12.4794 24 9.11905 24 6.55211 25.3079C4.29417 26.4584 2.4584 28.2942 1.30792 30.5521C-3.03465e-06 33.1191 -2.88777e-06 36.4794 -2.594e-06 43.2L-2.38418e-06 48L216 48Z" fill="#D9D9D9"/>
<path d="M180 24L180 19.2C180 12.4794 180 9.11906 178.692 6.55211C177.542 4.29417 175.706 2.4584 173.448 1.30792C170.881 1.82912e-06 167.521 1.976e-06 160.8 2.26977e-06L55.2 6.88569e-06C48.4794 7.17946e-06 45.119 7.32635e-06 42.5521 1.30793C40.2942 2.45841 38.4584 4.29418 37.3079 6.55212C36 9.11906 36 12.4794 36 19.2L36 24L180 24Z" fill="#E6E6E6"/>
</svg>
