<svg width="366" height="458" viewBox="0 0 366 458" fill="none" xmlns="http://www.w3.org/2000/svg">
<g clip-path="url(#clip0_361_1996)">
<path fill-rule="evenodd" clip-rule="evenodd" d="M22.614 6.062C21.552 4.21968 20.0235 2.6895 18.1824 1.62536C16.3413 0.561213 14.2525 0.000633457 12.126 1.95259e-07C2.80199 1.95259e-07 -3.02301 10.104 1.64399 18.182L54.074 108.939C58.044 115.81 60.029 119.245 62.79 121.758C65.338 124.075 68.355 125.817 71.636 126.865C75.19 128 79.156 128 87.087 128H278.913C286.844 128 290.809 128 294.364 126.865C297.645 125.817 300.662 124.075 303.21 121.758C305.971 119.245 307.956 115.81 311.925 108.939L364.356 18.182C369.023 10.104 363.198 1.95259e-07 353.874 1.95259e-07C351.747 -0.000381814 349.658 0.559769 347.817 1.62401C345.976 2.68826 344.447 4.219 343.386 6.062L297.93 84.909C293.963 91.791 291.979 95.231 289.217 97.747C286.668 100.068 283.65 101.813 280.366 102.863C276.808 104 272.839 104 264.9 104H101.1C93.161 104 89.192 104 85.634 102.863C82.3506 101.813 79.3318 100.069 76.783 97.748C74.021 95.231 72.037 91.791 68.07 84.909L22.614 6.062Z" fill="#D9D9D9"/>
</g>
<rect x="167" y="152" width="32" height="306" fill="#D9D9D9"/>
<line x1="195" y1="152" x2="195" y2="458" stroke="#E6E6E6" stroke-width="8" stroke-dasharray="16 16"/>
<path d="M231 128L231 132.8C231 139.521 231 142.881 229.692 145.448C228.542 147.706 226.706 149.542 224.448 150.692C221.881 152 218.521 152 211.8 152L154.2 152C147.479 152 144.119 152 141.552 150.692C139.294 149.542 137.458 147.706 136.308 145.448C135 142.881 135 139.521 135 132.8L135 128L231 128Z" fill="#E6E6E6"/>
<defs>
<clipPath id="clip0_361_1996">
<rect width="366" height="128" fill="white"/>
</clipPath>
</defs>
</svg>
