<svg width="676" height="144" viewBox="0 0 676 144" fill="none" xmlns="http://www.w3.org/2000/svg">
<path d="M175 72V72C175 65.3726 169.627 60 163 60L123 60C116.373 60 111 65.3726 111 72V72L175 72Z" fill="#E6E6E6"/>
<path d="M565 72V72C565 65.3726 559.627 60 553 60L513 60C506.373 60 501 65.3726 501 72V72L565 72Z" fill="#E6E6E6"/>
<path d="M676 144V144C676 130.745 665.255 120 652 120L24 120C10.7451 120 -5.18394e-05 130.745 -5.126e-05 144V144L676 144Z" fill="#D9D9D9"/>
<path d="M641 120V120C641 120 641 120 641 120C641 106.745 630.255 96 617 96C617 96 617 96 617 96L58.9999 96C58.9999 96 58.9999 96 58.9999 96C45.7451 96 35 106.745 34.9999 120C34.9999 120 34.9999 120 34.9999 120V120L641 120Z" fill="#D9D9D9"/>
<path d="M215 96V96C215 82.7452 204.255 72 191 72L95 72C81.7451 72 71 82.7452 71 96V96L215 96Z" fill="#D9D9D9"/>
<path d="M605 96V96C605 82.7452 594.255 72 581 72L485 72C471.745 72 461 82.7452 461 96V96L605 96Z" fill="#D9D9D9"/>
<g clip-path="url(#clip0_365_2133)">
<circle cx="338" cy="96" r="96" fill="#D9D9D9"/>
<path fill-rule="evenodd" clip-rule="evenodd" d="M397.912 135C406.831 135 415.296 130.133 418.015 121.639C420.603 113.557 422 104.942 422 96C422 49.6081 384.392 12 338 12C291.608 12 254 49.6081 254 96C254 104.942 255.397 113.557 257.985 121.639C260.704 130.133 269.169 135 278.088 135H397.912Z" fill="white"/>
<path fill-rule="evenodd" clip-rule="evenodd" d="M415.941 99.0668L403.95 98.6032C403.983 97.7402 404 96.8724 404 96C404 95.1276 403.983 94.2598 403.95 93.3968L415.941 92.9332C415.98 93.9506 416 94.973 416 96C416 97.027 415.98 98.0494 415.941 99.0668ZM411.199 68.9954L399.941 73.1501C399.341 71.525 398.679 69.9297 397.958 68.367L408.852 63.3361C409.706 65.1846 410.489 67.0722 411.199 68.9954ZM395.278 43.0535L386.468 51.2012C385.293 49.931 384.069 48.707 382.799 47.5323L390.946 38.7223C392.446 40.1091 393.891 41.554 395.278 43.0535ZM370.664 25.148L365.633 36.0425C364.07 35.3209 362.475 34.6588 360.85 34.0591L365.005 22.8012C366.928 23.511 368.815 24.2944 370.664 25.148ZM341.067 18.0592L340.603 30.0502C339.74 30.0169 338.872 30 338 30C337.128 30 336.26 30.0169 335.397 30.0502L334.933 18.0592C335.951 18.0198 336.973 18 338 18C339.027 18 340.049 18.0198 341.067 18.0592ZM310.995 22.8012L315.15 34.0591C313.525 34.6588 311.93 35.3209 310.367 36.0425L305.336 25.148C307.185 24.2944 309.072 23.511 310.995 22.8012ZM285.054 38.7223L293.201 47.5323C291.931 48.707 290.707 49.931 289.532 51.2012L280.722 43.0535C282.109 41.554 283.554 40.1091 285.054 38.7223ZM267.148 63.3361L278.042 68.367C277.321 69.9297 276.659 71.525 276.059 73.1501L264.801 68.9954C265.511 67.0722 266.294 65.1846 267.148 63.3361ZM260.059 92.9332C260.02 93.9506 260 94.973 260 96C260 97.027 260.02 98.0494 260.059 99.0668L272.05 98.6032C272.017 97.7402 272 96.8724 272 96C272 95.1276 272.017 94.2598 272.05 93.3968L260.059 92.9332ZM264.801 123.005L276.059 118.85C276.659 120.475 277.321 122.07 278.042 123.633L267.148 128.664C266.294 126.815 265.511 124.928 264.801 123.005ZM280.722 148.946L289.532 140.799C290.707 142.069 291.931 143.293 293.201 144.468L285.054 153.278C283.554 151.891 282.109 150.446 280.722 148.946ZM305.336 166.852L310.367 155.958C311.93 156.679 313.525 157.341 315.15 157.941L310.995 169.199C309.072 168.489 307.185 167.706 305.336 166.852ZM334.933 173.941L335.397 161.95C336.26 161.983 337.128 162 338 162C338.872 162 339.74 161.983 340.603 161.95L341.067 173.941C340.049 173.98 339.027 174 338 174C336.973 174 335.951 173.98 334.933 173.941ZM365.005 169.199L360.85 157.941C362.475 157.341 364.07 156.679 365.633 155.958L370.664 166.852C368.815 167.706 366.928 168.489 365.005 169.199ZM390.946 153.278L382.799 144.468C384.069 143.293 385.293 142.069 386.468 140.799L395.278 148.946C393.891 150.446 392.446 151.891 390.946 153.278ZM408.852 128.664L397.958 123.633C398.679 122.07 399.341 120.475 399.941 118.85L411.199 123.005C410.489 124.928 409.706 126.815 408.852 128.664Z" fill="#E6E6E6"/>
</g>
<rect x="83" y="84" width="120" height="48" rx="12" fill="white"/>
<rect x="473" y="84" width="120" height="48" rx="12" fill="white"/>
<defs>
<clipPath id="clip0_365_2133">
<rect width="192" height="192" fill="white" transform="translate(242)"/>
</clipPath>
</defs>
</svg>
